<?xml version="1.0" encoding="utf-8"?>
<!-- Generator: Adobe Illustrator 16.0.0, SVG Export Plug-In . SVG Version: 6.00 Build 0)  -->
<!DOCTYPE svg PUBLIC "-//W3C//DTD SVG 1.1//EN" "http://www.w3.org/Graphics/SVG/1.1/DTD/svg11.dtd">
<svg version="1.1" id="Layer_1" xmlns="http://www.w3.org/2000/svg" xmlns:xlink="http://www.w3.org/1999/xlink" x="0px" y="0px"
	 width="282px" height="55px" viewBox="0 0 282 55" enable-background="new 0 0 282 55" xml:space="preserve">
<g>
	<path fill="#FFFFFF" d="M41.331,5.055c3.08,5.745-1.678,7.994-6.313,9.067c-0.366,0.665-0.573,1.838,0.925,2.033
		c3.322-0.077,16.079-0.418,16.811,1.151c1.622,2.489,2.231,9.854,0.463,16.504c-1.831,3.942-20.982-0.707-18.598,7.312
		c1.01,0.389,1.585,0.234,3.073-0.426c1.76-0.51,2.762-0.387,3.765-0.153c2.356,0.715,6.856,5.593,15.806,2.66
		c0.998,2.407,2.757,3.922,3.708,6.507c-12.129,6.26-17.835-4.742-25.646,0.826c-1.7,1.458-4.48,1.173-4.48,1.173
		c-1.252-0.161-2.28-0.347-5.037-1.985c-3.878-3.593-13.968,5.926-22.309-0.943c0.8-2.457,3.066-4.828,3.708-6.506
		c6.093,1.715,7.092,1.514,14.212-1.344c0,0,2.482-0.563,4.621-0.024c2.611,1.206,2.714,0.209,2.714,0.209
		c2.793-6.906-6.129-2.956-16.373-5.312c-1.22-2.029-1.854-13.226-0.465-15.574c5.023-3.166,12.297-2.723,18.309-4.094
		c1.275-3.915-1.969-2.521-3.321-6.782C26.711,1.684,37.969,0.91,41.331,5.055z M31.423,8.813c-0.541,3.112,7.031,2.828,6.451-1.201
		C37.257,4.629,31.346,5.985,31.423,8.813z M17.75,23.264c-0.32,1.698-0.618,5.657-0.193,7.905c0.889,2.826,24.141,1.82,29.045,0
		c1.739-2.79,0.85-8.912,0.38-9.432C38.338,19.894,24.286,20.634,17.75,23.264z"/>
</g>
<g>
	<path fill="#FFFFFF" d="M78.009,21.325v12.875h-1.658V21.325H78.009z"/>
	<path fill="#FFFFFF" d="M81.036,27.458c0-0.956-0.02-1.738-0.076-2.503h1.485l0.095,1.527h0.037
		c0.458-0.879,1.523-1.737,3.047-1.737c1.275,0,3.257,0.764,3.257,3.936v5.52h-1.675v-5.33c0-1.49-0.553-2.732-2.134-2.732
		c-1.104,0-1.962,0.784-2.247,1.719c-0.075,0.211-0.114,0.496-0.114,0.783v5.561h-1.676L81.036,27.458L81.036,27.458z"/>
	<path fill="#FFFFFF" d="M91.775,34.199v-7.965H90.48v-1.28h1.295v-0.439c0-1.301,0.285-2.484,1.067-3.229
		c0.628-0.611,1.466-0.858,2.246-0.858c0.59,0,1.104,0.132,1.429,0.266l-0.229,1.299c-0.247-0.114-0.59-0.209-1.066-0.209
		c-1.428,0-1.79,1.259-1.79,2.674v0.496h2.228v1.28h-2.228v7.965H91.775z"/>
	<path fill="#FFFFFF" d="M105.256,29.499c0,3.421-2.36,4.912-4.589,4.912c-2.494,0-4.418-1.834-4.418-4.757
		c0-3.095,2.019-4.911,4.57-4.911C103.467,24.743,105.256,26.674,105.256,29.499z M97.943,29.598c0,2.021,1.163,3.553,2.801,3.553
		c1.6,0,2.799-1.512,2.799-3.592c0-1.566-0.78-3.555-2.761-3.555C98.8,26.005,97.943,27.839,97.943,29.598z"/>
	<path fill="#FFFFFF" d="M107.368,27.839c0-1.09-0.02-2.025-0.075-2.885h1.467l0.057,1.813h0.076
		c0.42-1.241,1.429-2.024,2.553-2.024c0.19,0,0.324,0.019,0.476,0.058v1.584c-0.171-0.038-0.343-0.057-0.57-0.057
		c-1.181,0-2.019,0.897-2.247,2.158c-0.039,0.229-0.076,0.498-0.076,0.784v4.928h-1.658L107.368,27.839L107.368,27.839z"/>
	<path fill="#FFFFFF" d="M113.669,27.458c0-0.956-0.02-1.738-0.076-2.503h1.467l0.076,1.49h0.057c0.515-0.879,1.372-1.7,2.896-1.7
		c1.257,0,2.209,0.764,2.609,1.854h0.038c0.285-0.516,0.647-0.916,1.028-1.203c0.552-0.421,1.161-0.651,2.037-0.651
		c1.218,0,3.027,0.805,3.027,4.012v5.446h-1.638v-5.235c0-1.776-0.648-2.846-2.001-2.846c-0.951,0-1.694,0.706-1.979,1.527
		c-0.076,0.229-0.133,0.535-0.133,0.84v5.711h-1.638v-5.539c0-1.471-0.648-2.541-1.924-2.541c-1.046,0-1.809,0.842-2.076,1.682
		c-0.095,0.248-0.133,0.535-0.133,0.82v5.578h-1.638V27.458L113.669,27.458z"/>
	<path fill="#FFFFFF" d="M134.654,34.199l-0.134-1.164h-0.058c-0.513,0.728-1.504,1.376-2.818,1.376
		c-1.868,0-2.818-1.318-2.818-2.655c0-2.235,1.979-3.458,5.54-3.439v-0.189c0-0.766-0.209-2.14-2.095-2.14
		c-0.856,0-1.751,0.267-2.399,0.687l-0.381-1.108c0.762-0.497,1.867-0.823,3.028-0.823c2.819,0,3.504,1.931,3.504,3.783v3.458
		c0,0.803,0.039,1.586,0.151,2.215H134.654z M134.407,29.481c-1.83-0.038-3.905,0.285-3.905,2.083c0,1.09,0.723,1.604,1.581,1.604
		c1.201,0,1.961-0.764,2.229-1.547c0.056-0.172,0.096-0.361,0.096-0.535V29.481z"/>
	<path fill="#FFFFFF" d="M140.669,22.298v2.657h2.401v1.28h-2.401v4.987c0,1.145,0.323,1.795,1.257,1.795
		c0.439,0,0.761-0.057,0.972-0.116l0.074,1.26c-0.322,0.134-0.838,0.229-1.486,0.229c-0.779,0-1.408-0.247-1.809-0.706
		c-0.477-0.497-0.647-1.318-0.647-2.408v-5.041h-1.428v-1.281h1.428v-2.216L140.669,22.298z"/>
	<path fill="#FFFFFF" d="M146.818,22.356c0.02,0.573-0.398,1.031-1.066,1.031c-0.59,0-1.012-0.458-1.012-1.031
		c0-0.592,0.439-1.05,1.049-1.05C146.42,21.307,146.818,21.765,146.818,22.356z M144.953,34.199v-9.245h1.676v9.245H144.953z"/>
	<path fill="#FFFFFF" d="M155.979,33.856c-0.439,0.229-1.41,0.534-2.648,0.534c-2.781,0-4.592-1.89-4.592-4.718
		c0-2.846,1.943-4.91,4.953-4.91c0.992,0,1.869,0.249,2.324,0.478l-0.381,1.301c-0.398-0.231-1.027-0.441-1.943-0.441
		c-2.113,0-3.256,1.567-3.256,3.497c0,2.139,1.371,3.459,3.199,3.459c0.953,0,1.582-0.25,2.059-0.461L155.979,33.856z"/>
	<path fill="#FFFFFF" d="M163.043,34.199l-0.135-1.164h-0.057c-0.514,0.728-1.504,1.376-2.818,1.376
		c-1.867,0-2.818-1.318-2.818-2.655c0-2.235,1.979-3.458,5.541-3.439v-0.189c0-0.766-0.211-2.14-2.096-2.14
		c-0.855,0-1.752,0.267-2.4,0.687l-0.383-1.108c0.764-0.497,1.869-0.823,3.031-0.823c2.816,0,3.502,1.931,3.502,3.783v3.458
		c0,0.803,0.039,1.586,0.154,2.215H163.043z M162.793,29.481c-1.828-0.038-3.902,0.285-3.902,2.083c0,1.09,0.723,1.604,1.58,1.604
		c1.201,0,1.961-0.764,2.23-1.547c0.055-0.172,0.092-0.361,0.092-0.535V29.481z"/>
	<path fill="#FFFFFF" d="M169.877,21.325v7.412c0,2.216,0.836,3.344,2.322,3.344c1.523,0,2.361-1.07,2.361-3.344v-7.412h2.895v7.22
		c0,3.975-2,5.866-5.352,5.866c-3.238,0-5.143-1.795-5.143-5.902v-7.184H169.877L169.877,21.325z"/>
	<path fill="#FFFFFF" d="M179.871,27.839c0-1.165-0.039-2.157-0.074-2.979h2.438l0.131,1.26h0.059
		c0.4-0.592,1.217-1.472,2.818-1.472c1.201,0,2.152,0.613,2.553,1.587h0.037c0.344-0.478,0.762-0.86,1.201-1.128
		c0.514-0.305,1.084-0.459,1.771-0.459c1.791,0,3.143,1.261,3.143,4.052v5.5h-2.82v-5.081c0-1.354-0.436-2.14-1.369-2.14
		c-0.668,0-1.145,0.458-1.334,1.014c-0.076,0.21-0.115,0.516-0.115,0.744v5.463h-2.82v-5.232c0-1.186-0.418-1.988-1.332-1.988
		c-0.742,0-1.182,0.572-1.354,1.05c-0.096,0.229-0.113,0.498-0.113,0.727v5.444h-2.818V27.839L179.871,27.839z"/>
	<path fill="#FFFFFF" d="M201.539,34.199l-0.172-0.935h-0.057c-0.609,0.745-1.562,1.146-2.666,1.146c-1.885,0-3.01-1.376-3.01-2.866
		c0-2.427,2.172-3.592,5.467-3.572v-0.134c0-0.497-0.266-1.204-1.695-1.204c-0.953,0-1.961,0.325-2.57,0.707l-0.533-1.872
		c0.646-0.363,1.924-0.822,3.617-0.822c3.104,0,4.094,1.834,4.094,4.032v3.246c0,0.898,0.039,1.759,0.135,2.273H201.539z
		 M201.197,29.787c-1.523-0.021-2.705,0.344-2.705,1.471c0,0.744,0.496,1.108,1.143,1.108c0.725,0,1.312-0.477,1.504-1.068
		c0.037-0.155,0.059-0.325,0.059-0.499V29.787z"/>
	<path fill="#FFFFFF" d="M206.297,27.839c0-1.165-0.037-2.157-0.074-2.979h2.514l0.131,1.279h0.059
		c0.383-0.593,1.334-1.491,2.875-1.491c1.906,0,3.334,1.261,3.334,4.013v5.539h-2.895v-5.177c0-1.204-0.418-2.024-1.465-2.024
		c-0.803,0-1.275,0.553-1.467,1.088c-0.076,0.172-0.115,0.457-0.115,0.727v5.387h-2.896V27.839L206.297,27.839z"/>
	<path fill="#FFFFFF" d="M220.445,22.261c0,0.802-0.611,1.452-1.562,1.452c-0.914,0-1.521-0.649-1.504-1.452
		c-0.018-0.84,0.59-1.471,1.523-1.471C219.834,20.79,220.428,21.42,220.445,22.261z M217.455,34.199v-9.341h2.895v9.341H217.455z"/>
	<path fill="#FFFFFF" d="M222.652,31.66c0.533,0.324,1.639,0.706,2.496,0.706c0.877,0,1.238-0.306,1.238-0.783
		s-0.287-0.706-1.371-1.069c-1.926-0.651-2.668-1.701-2.646-2.81c0-1.737,1.486-3.057,3.789-3.057c1.084,0,2.057,0.249,2.627,0.535
		l-0.514,2.005c-0.418-0.23-1.217-0.535-2.018-0.535c-0.705,0-1.105,0.286-1.105,0.764c0,0.439,0.363,0.668,1.504,1.069
		c1.771,0.612,2.514,1.511,2.533,2.886c0,1.738-1.371,3.018-4.037,3.018c-1.217,0-2.305-0.265-3.01-0.647L222.652,31.66z"/>
	<path fill="#FFFFFF" d="M234.174,22.185v2.674h2.074v2.139h-2.074v3.381c0,1.129,0.266,1.643,1.141,1.643
		c0.361,0,0.648-0.037,0.857-0.075l0.02,2.197c-0.381,0.151-1.066,0.247-1.885,0.247c-0.932,0-1.715-0.322-2.17-0.8
		c-0.533-0.555-0.801-1.452-0.801-2.771v-3.822h-1.238v-2.139h1.238v-2.026L234.174,22.185z"/>
	<path fill="#FFFFFF" d="M240.912,22.261c0,0.802-0.607,1.452-1.562,1.452c-0.912,0-1.521-0.649-1.502-1.452
		c-0.02-0.84,0.59-1.471,1.523-1.471S240.895,21.42,240.912,22.261z M237.922,34.199v-9.341h2.895v9.341H237.922z"/>
	<path fill="#FFFFFF" d="M250.129,33.973c-0.516,0.227-1.486,0.418-2.59,0.418c-3.01,0-4.934-1.834-4.934-4.775
		c0-2.732,1.867-4.968,5.334-4.968c0.76,0,1.598,0.134,2.209,0.362l-0.457,2.158c-0.344-0.151-0.857-0.285-1.617-0.285
		c-1.523,0-2.516,1.09-2.496,2.616c0,1.721,1.143,2.616,2.551,2.616c0.688,0,1.219-0.114,1.656-0.285L250.129,33.973z"/>
	<path fill="#FFFFFF" d="M257.096,34.199l-0.172-0.935h-0.057c-0.609,0.745-1.561,1.146-2.666,1.146c-1.885,0-3.01-1.376-3.01-2.866
		c0-2.427,2.172-3.592,5.467-3.572v-0.134c0-0.497-0.266-1.204-1.695-1.204c-0.953,0-1.963,0.325-2.57,0.707l-0.535-1.872
		c0.648-0.363,1.924-0.822,3.619-0.822c3.105,0,4.094,1.834,4.094,4.032v3.246c0,0.898,0.039,1.759,0.135,2.273H257.096z
		 M256.754,29.787c-1.523-0.021-2.703,0.344-2.703,1.471c0,0.744,0.494,1.108,1.143,1.108c0.723,0,1.312-0.477,1.502-1.068
		c0.039-0.155,0.059-0.325,0.059-0.499V29.787z"/>
</g>
</svg>
