<svg width="64" height="64" xmlns="http://www.w3.org/2000/svg">
 <g>
  <title>background</title>
  <rect fill="none" id="canvas_background" height="66" width="66" y="-1" x="-1"/>
 </g>

 <g>
  <title>Layer 1</title>
  <path fill="#0000ff" id="Fill-55" d="m31.92233,63.62232l-1.19542,-1.4757c-0.79695,-1.07324 -21.11914,-25.08699 -21.11914,-39.44158c0,-12.47642 10.09468,-22.53804 22.31456,-22.53804s22.31456,10.19578 22.31456,22.53804c0,14.35459 -20.32219,38.50249 -21.11914,39.44158l-1.19542,1.4757l0,0zm0,-60.36976c-10.62598,0 -19.12677,8.72008 -19.12677,19.31832c0,11.26903 14.74355,30.4532 19.12677,35.95355c4.38322,-5.50035 19.12677,-24.55037 19.12677,-35.95355c0,-10.59824 -8.50079,-19.31832 -19.12677,-19.31832l0,0z" class="st0" stroke="null"/>
  <path fill="#0000ff" id="Fill-56" d="m32,30.8233c-4.39199,0 -8.03107,-3.70946 -8.03107,-8.18641s3.63908,-8.1864 8.03107,-8.1864s8.03107,3.70946 8.03107,8.1864s-3.63908,8.18641 -8.03107,8.18641l0,0zm0,-13.30291c-2.76068,0 -5.01942,2.30243 -5.01942,5.1165s2.25874,5.11651 5.01942,5.11651c2.76068,0 5.01942,-2.30243 5.01942,-5.11651s-2.25874,-5.1165 -5.01942,-5.1165l0,0z" class="st0" stroke="null"/>
 </g>
</svg>