<svg width="64" height="64" xmlns="http://www.w3.org/2000/svg">
 <g>
  <title>background</title>
  <rect x="-1" y="-1" width="2.061838" height="2.061838" id="canvas_background" fill="none"/>
 </g>

 <g>
  <title>Layer 1</title>
  <path stroke="null" class="st0" d="m31.922331,63.622324l-1.195423,-1.475705c-0.796949,-1.07324 -21.119137,-25.086991 -21.119137,-39.441579c0,-12.476418 10.094682,-22.538045 22.31456,-22.538045s22.31456,10.195782 22.31456,22.538045c0,14.354588 -20.322189,38.502494 -21.119137,39.441579l-1.195423,1.475705l0,0zm0,-60.369764c-10.625981,0 -19.126766,8.720077 -19.126766,19.318324c0,11.269023 14.743549,30.453192 19.126766,35.953548c4.383217,-5.500356 19.126766,-24.550371 19.126766,-35.953548c0,-10.598247 -8.500785,-19.318324 -19.126766,-19.318324l0,0z" id="Fill-55" fill="#ff0000"/>
  <path stroke="null" class="st0" d="m32.000001,30.823302c-4.39199,0 -8.031067,-3.709466 -8.031067,-8.186407s3.639077,-8.186407 8.031067,-8.186407s8.031067,3.709466 8.031067,8.186407s-3.639077,8.186407 -8.031067,8.186407l0,0zm0,-13.302911c-2.760679,0 -5.019417,2.302427 -5.019417,5.116504s2.258738,5.116504 5.019417,5.116504c2.760679,0 5.019417,-2.302427 5.019417,-5.116504s-2.258738,-5.116504 -5.019417,-5.116504l0,0z" id="Fill-56" fill="#ff0000"/>
 </g>
</svg>