<svg width="32" height="32" xmlns="http://www.w3.org/2000/svg">

 <g>
  <title>background</title>
  <rect fill="none" id="canvas_background" height="402" width="582" y="-1" x="-1"/>
 </g>
 <g>
  <title>Layer 1</title>
  <path stroke="null" id="Arrow_Right_2_" fill="#666666" d="m30.927635,29.448331c-0.010966,0 -0.022928,0 -0.033894,-0.001c-0.504417,-0.017 -0.822418,-0.409 -0.865284,-0.913c-0.033894,-0.371 -1.026777,-9.347 -14.991941,-9.337l-0.030903,5.739c0,0.387 -0.222302,0.739 -0.571207,0.904c-0.345914,0.166 -0.761609,0.115 -1.05768,-0.132l-12.927422,-10.743c-0.231274,-0.19 -0.364855,-0.475 -0.363858,-0.774c0.000997,-0.3 0.135574,-0.584 0.366848,-0.773l12.926425,-10.643c0.298064,-0.244 0.709772,-0.291 1.056683,-0.128c0.347908,0.166 0.569213,0.518 0.569213,0.903l0.030903,5.613c5.793814,0.185 10.279733,2.054 13.188602,5.468c4.733143,5.556 3.67646,13.63 3.627613,13.966c-0.073768,0.49 -0.431645,0.851 -0.924099,0.851zm-16.918893,-12.267c0.000997,0 0.001994,0 0.001994,0c9.975687,0.006 13.787721,3.385 15.96389,6.369c-0.318002,-2.391 -1.248082,-5.272 -3.270733,-7.626c-2.689558,-3.128 -7.022955,-4.776 -12.695151,-4.776c-0.55127,0 -0.996871,-0.447 -0.996871,-1l0,-4.493l-10.356492,8.542l10.356492,8.622l0,-4.638c0,-0.266 0.104671,-0.521 0.29308,-0.708c0.186415,-0.187 0.43962,-0.292 0.703791,-0.292z"/>
 </g>
</svg>