<svg width="20" height="20" xmlns="http://www.w3.org/2000/svg">
 <title/>
 <desc/>

 <g>
  <title>background</title>
  <rect fill="none" id="canvas_background" height="402" width="582" y="-1" x="-1"/>
 </g>
 <g>
  <title>Layer 1</title>
  <path fill="#0000ff" stroke="null" id="Shape" d="m10,1.130296c-4.793011,0 -8.714566,3.991367 -8.714566,8.869705c0,4.878338 3.921555,8.869705 8.714566,8.869705c4.793011,0 8.714566,-3.991367 8.714566,-8.869705c0,-4.878338 -3.921555,-8.869705 -8.714566,-8.869705l0,0zm0,15.965468c-3.834409,0 -6.971653,-3.193094 -6.971653,-7.095764c0,-3.90267 3.137244,-7.095764 6.971653,-7.095764c3.834409,0 6.971653,3.193094 6.971653,7.095764c0,3.90267 -3.137244,7.095764 -6.971653,7.095764zm0.435728,-11.530616l-1.307185,0l0,5.321823l4.531574,2.838305l0.697165,-1.153062l-3.921555,-2.39482l0,-4.612246z"/>
 </g>
</svg>