<svg width="90" height="90" xmlns="http://www.w3.org/2000/svg">

 <g>
  <title>background</title>
  <rect fill="none" id="canvas_background" height="402" width="582" y="-1" x="-1"/>
 </g>
 <g>
  <title>Layer 1</title>
  <path fill="#0000ff" id="Facebook__x28_alt_x29_" d="m86.224609,17.582172c0,-7.220139 -6.504257,-13.709126 -13.741402,-13.709126l-54.965591,0c-7.237136,0 -13.741398,6.488987 -13.741398,13.709126l0,54.836506c0,7.220139 6.504262,13.709122 13.741398,13.709122l27.482796,0l0,-31.074017l-10.077023,0l0,-13.709126l10.077023,0l0,-5.300861c0,-9.230812 6.962311,-17.547682 15.481979,-17.547682l11.084724,0l0,13.709124l-11.084724,0c-1.190926,0 -2.656673,1.462307 -2.656673,3.655769l0,5.48365l13.741398,0l0,13.709126l-13.741398,0l0,31.074017l14.65749,0c7.237144,0 13.741402,-6.488983 13.741402,-13.709122l0,-54.836506z"/>
 </g>
</svg>