<svg width="1792" height="1792" xmlns="http://www.w3.org/2000/svg">

 <g>
  <title>background</title>
  <rect fill="none" id="canvas_background" height="402" width="582" y="-1" x="-1"/>
 </g>
 <g>
  <title>Layer 1</title>
  <path stroke="null" fill="#0000ff" id="svg_1" d="m362.1148,449.816768q57.954645,0 99.225377,40.958228t41.270732,98.474038l0,948.13941q0,57.51581 -41.270732,98.474038t-99.225377,40.958228l-112.396888,0q-57.954645,0 -99.225377,-40.958228t-41.270732,-98.474038l0,-948.13941q0,-57.51581 41.270732,-98.474038t99.225377,-40.958228l112.396888,0zm1208.266541,142.046621q50.92984,29.629357 81.663364,81.045005t30.733524,111.545813l0,669.274878q0,92.373876 -65.857551,157.732751t-158.936224,65.358875l-758.678991,0q-57.954645,0 -99.225377,-40.958228t-41.270732,-98.474038l0,-1338.549756q0,-34.858067 24.586819,-59.258713t59.710846,-24.400647l590.083659,0q35.124027,0 77.27286,17.429033t66.735652,41.82968l133.471304,132.460653q24.586819,24.400647 42.148833,66.230326t17.562014,76.687746l0,142.046621zm-646.282103,861.865696l0,-111.545813q0,-12.200323 -7.902906,-20.043388t-20.196316,-7.843065l-112.396888,0q-12.29341,0 -20.196316,7.843065t-7.902906,20.043388l0,111.545813q0,12.200323 7.902906,20.043388t20.196316,7.843065l112.396888,0q12.29341,0 20.196316,-7.843065t7.902906,-20.043388zm0,-223.091626l0,-111.545813q0,-12.200323 -7.902906,-20.043388t-20.196316,-7.843065l-112.396888,0q-12.29341,0 -20.196316,7.843065t-7.902906,20.043388l0,111.545813q0,12.200323 7.902906,20.043388t20.196316,7.843065l112.396888,0q12.29341,0 20.196316,-7.843065t7.902906,-20.043388zm0,-223.091626l0,-111.545813q0,-12.200323 -7.902906,-20.043388t-20.196316,-7.843065l-112.396888,0q-12.29341,0 -20.196316,7.843065t-7.902906,20.043388l0,111.545813q0,12.200323 7.902906,20.043388t20.196316,7.843065l112.396888,0q12.29341,0 20.196316,-7.843065t7.902906,-20.043388zm224.793775,446.183252l0,-111.545813q0,-12.200323 -7.902906,-20.043388t-20.196316,-7.843065l-112.396888,0q-12.29341,0 -20.196316,7.843065t-7.902906,20.043388l0,111.545813q0,12.200323 7.902906,20.043388t20.196316,7.843065l112.396888,0q12.29341,0 20.196316,-7.843065t7.902906,-20.043388zm0,-223.091626l0,-111.545813q0,-12.200323 -7.902906,-20.043388t-20.196316,-7.843065l-112.396888,0q-12.29341,0 -20.196316,7.843065t-7.902906,20.043388l0,111.545813q0,12.200323 7.902906,20.043388t20.196316,7.843065l112.396888,0q12.29341,0 20.196316,-7.843065t7.902906,-20.043388zm0,-223.091626l0,-111.545813q0,-12.200323 -7.902906,-20.043388t-20.196316,-7.843065l-112.396888,0q-12.29341,0 -20.196316,7.843065t-7.902906,20.043388l0,111.545813q0,12.200323 7.902906,20.043388t20.196316,7.843065l112.396888,0q12.29341,0 20.196316,-7.843065t7.902906,-20.043388zm224.793775,446.183252l0,-111.545813q0,-12.200323 -7.902906,-20.043388t-20.196316,-7.843065l-112.396888,0q-12.29341,0 -20.196316,7.843065t-7.902906,20.043388l0,111.545813q0,12.200323 7.902906,20.043388t20.196316,7.843065l112.396888,0q12.29341,0 20.196316,-7.843065t7.902906,-20.043388zm0,-223.091626l0,-111.545813q0,-12.200323 -7.902906,-20.043388t-20.196316,-7.843065l-112.396888,0q-12.29341,0 -20.196316,7.843065t-7.902906,20.043388l0,111.545813q0,12.200323 7.902906,20.043388t20.196316,7.843065l112.396888,0q12.29341,0 20.196316,-7.843065t7.902906,-20.043388zm0,-223.091626l0,-111.545813q0,-12.200323 -7.902906,-20.043388t-20.196316,-7.843065l-112.396888,0q-12.29341,0 -20.196316,7.843065t-7.902906,20.043388l0,111.545813q0,12.200323 7.902906,20.043388t20.196316,7.843065l112.396888,0q12.29341,0 20.196316,-7.843065t7.902906,-20.043388zm84.297666,-334.637439l0,-223.091626l-140.496109,0q-35.124027,0 -59.710846,-24.400647t-24.586819,-59.258713l0,-139.432266l-561.984438,0l0,446.183252l786.778213,0z"/>
 </g>
</svg>