<svg width="32" height="32" xmlns="http://www.w3.org/2000/svg">
 <title/>
 <desc/>

 <g>
  <title>background</title>
  <rect fill="none" id="canvas_background" height="402" width="582" y="-1" x="-1"/>
 </g>
 <g>
  <title>Layer 1</title>
  <path stroke="null" fill="#666666" id="search" d="m18.932318,21.110179c-1.500729,1.072953 -3.336974,1.704053 -5.320119,1.704053c-5.068859,0 -9.177981,-4.122952 -9.177981,-9.208871c0,-5.085919 4.109123,-9.208871 9.177981,-9.208871c5.068859,0 9.177981,4.122952 9.177981,9.208871c0,1.98982 -0.628983,3.832245 -1.698337,5.338025l6.030258,6.050553c0.594085,0.596085 0.589129,1.549853 -0.000216,2.141182l-0.02531,0.025395c-0.587844,0.589823 -1.544773,0.591426 -2.133999,0.000217l-6.030258,-6.050553l0,0zm-5.320119,-0.46274c3.876185,0 7.018456,-3.152847 7.018456,-7.042078c0,-3.889231 -3.142271,-7.042078 -7.018456,-7.042078c-3.876185,0 -7.018456,3.152847 -7.018456,7.042078c0,3.889231 3.142271,7.042078 7.018456,7.042078l0,0z"/>
 </g>
</svg>